<svg xmlns="http://www.w3.org/2000/svg" viewBox="0 0 3291.8533 755.90668" height="755.90668" width="3291.8533" id="svg2" version="1.1">
  <defs id="defs6"></defs>
  
  <g transform="matrix(1.3333333,0,0,-1.3333333,0,755.90667)" id="g8">
    <g transform="scale(0.1)" id="g10">
      <path id="path12" style="fill:#ffffff;fill-opacity:1;fill-rule:nonzero;stroke:none" d="M 1713.24,950.082 H 872.195 V 2460.85 h 841.045 c 451.68,0 763.18,-303.72 763.18,-755.39 0,-451.68 -311.5,-755.378 -763.18,-755.378 z M 872.195,4719.21 h 724.235 c 428.31,0 716.45,-288.13 716.45,-708.66 0,-420.52 -288.14,-708.66 -716.45,-708.66 H 872.195 Z M 2725.61,2935.89 c 288.14,264.77 459.47,638.57 459.47,1074.66 0,895.56 -654.15,1549.71 -1557.5,1549.71 H 0 V 109.031 h 1744.39 c 926.71,0 1604.22,669.731 1604.22,1596.429 0,521.77 -233.62,957.86 -623,1230.43"></path>
      <path id="path14" style="fill:#ffffff;fill-opacity:1;fill-rule:nonzero;stroke:none" d="m 6486.95,1604.22 c 0,-443.89 -319.29,-763.161 -763.18,-763.161 -443.88,0 -763.17,319.271 -763.17,763.161 V 5560.26 H 4088.4 V 1666.52 C 4088.4,700.871 4773.7,0 5723.77,0 6673.84,0 7359.14,700.871 7359.14,1666.52 V 5560.26 H 6486.95 V 1604.22"></path>
      <path id="path16" style="fill:#ffffff;fill-opacity:1;fill-rule:nonzero;stroke:none" d="m 9930.29,5669.29 c -950.07,0 -1635.37,-700.88 -1635.37,-1666.52 V 1666.52 C 8294.92,700.871 8980.22,0 9930.29,0 10880.4,0 11565.7,700.871 11565.7,1666.52 V 3255.17 H 9930.29 v -841.05 h 763.21 v -809.9 c 0,-443.89 -319.3,-763.161 -763.21,-763.161 -443.89,0 -763.18,319.271 -763.18,763.161 v 2460.85 c 0,443.89 319.29,763.18 763.18,763.18 443.91,0 763.21,-319.29 763.21,-763.18 v -140.18 h 872.2 v 77.88 c 0,965.64 -685.3,1666.52 -1635.41,1666.52"></path>
      <path id="path18" style="fill:#ffffff;fill-opacity:1;fill-rule:nonzero;stroke:none" d="m 13495.5,2040.32 545.1,2390.76 545.2,-2390.76 z M 13441,5560.26 12187.2,109.031 h 864.4 l 249.2,1090.249 h 1479.6 l 249.2,-1090.249 h 864.5 L 14640.3,5560.26 H 13441"></path>
      <path id="path20" style="fill:#ffffff;fill-opacity:1;fill-rule:nonzero;stroke:none" d="m 16042,4719.21 h 1199.3 l 7.8,-4610.179 h 856.6 l 7.8,4610.179 h 1199.2 v 841.05 H 16042 v -841.05"></path>
      <path id="path22" style="fill:#ffffff;fill-opacity:1;fill-rule:nonzero;stroke:none" d="m 19765.9,4719.21 h 1199.3 l 7.8,-4610.179 h 856.6 l 7.8,4610.179 h 1199.2 v 841.05 h -3270.7 v -841.05"></path>
      <path id="path24" style="fill:#ffffff;fill-opacity:1;fill-rule:nonzero;stroke:none" d="M 23816.7,5560.26 V 109.031 h 872.2 V 5560.26 h -872.2"></path>
    </g>
  </g>
</svg>
